<?xml version="1.0" encoding="UTF-8" standalone="no"?>
<!DOCTYPE svg PUBLIC "-//W3C//DTD SVG 1.1//EN"
 "http://www.w3.org/Graphics/SVG/1.1/DTD/svg11.dtd">
<!-- Generated by graphviz version 2.43.0 (0)
 -->
<!-- Title: FLOW Pages: 1 -->
<svg width="2528pt" height="507pt"
 viewBox="0.00 0.00 2528.00 507.22" xmlns="http://www.w3.org/2000/svg" xmlns:xlink="http://www.w3.org/1999/xlink">
<g id="graph0" class="graph" transform="scale(1 1) rotate(0) translate(4 503.22)">
<title>FLOW</title>
<polygon fill="white" stroke="transparent" points="-4,4 -4,-503.22 2524,-503.22 2524,4 -4,4"/>
<text text-anchor="middle" x="1260" y="-483.22" font-family="Helvetica,sans-Serif" font-size="15.00">Risk Radar — Vulnerability Data Flow (D2)</text>
<text text-anchor="middle" x="1260" y="-466.22" font-family="Helvetica,sans-Serif" font-size="15.00">raw value → normalisation → indices → vulnerability → projection → monitoring &#160;&#160;| &#160;&#160;2026&#45;07&#45;29</text>
<text text-anchor="middle" x="1260" y="-431.22" font-family="Helvetica,sans-Serif" font-size="15.00">Solid border = built and verified &#160;&#160;| &#160;&#160;dashed = designed, not yet implemented</text>
<text text-anchor="middle" x="1260" y="-414.22" font-family="Helvetica,sans-Serif" font-size="15.00">Generated by design/architecture/generate_diagrams.py — do not hand&#45;edit</text>
<g id="clust1" class="cluster">
<title>cluster_src</title>
<path fill="none" stroke="#c77400" d="M12,-124.22C12,-124.22 245,-124.22 245,-124.22 251,-124.22 257,-130.22 257,-136.22 257,-136.22 257,-385.22 257,-385.22 257,-391.22 251,-397.22 245,-397.22 245,-397.22 12,-397.22 12,-397.22 6,-397.22 0,-391.22 0,-385.22 0,-385.22 0,-136.22 0,-136.22 0,-130.22 6,-124.22 12,-124.22"/>
<text text-anchor="middle" x="128.5" y="-384.42" font-family="Helvetica,sans-Serif" font-size="11.00" fill="#c77400">1 · Raw values — three tracks, one schema</text>
</g>
<g id="clust2" class="cluster">
<title>cluster_rules</title>
<path fill="none" stroke="#616161" d="M481.5,-35.22C481.5,-35.22 699.5,-35.22 699.5,-35.22 705.5,-35.22 711.5,-41.22 711.5,-47.22 711.5,-47.22 711.5,-190.22 711.5,-190.22 711.5,-196.22 705.5,-202.22 699.5,-202.22 699.5,-202.22 481.5,-202.22 481.5,-202.22 475.5,-202.22 469.5,-196.22 469.5,-190.22 469.5,-190.22 469.5,-47.22 469.5,-47.22 469.5,-41.22 475.5,-35.22 481.5,-35.22"/>
<text text-anchor="middle" x="590.5" y="-189.42" font-family="Helvetica,sans-Serif" font-size="11.00" fill="#616161">2 · Period rules (A3, decided 2026&#45;07&#45;26)</text>
</g>
<!-- s_xl -->
<g id="node1" class="node">
<title>s_xl</title>
<path fill="#c77400" fill-opacity="0.094118" stroke="#c77400" stroke-width="1.4" stroke-dasharray="5,2" d="M169.5,-369.22C169.5,-369.22 86.5,-369.22 86.5,-369.22 80.5,-369.22 74.5,-363.22 74.5,-357.22 74.5,-357.22 74.5,-339.22 74.5,-339.22 74.5,-333.22 80.5,-327.22 86.5,-327.22 86.5,-327.22 169.5,-327.22 169.5,-327.22 175.5,-327.22 181.5,-333.22 181.5,-339.22 181.5,-339.22 181.5,-357.22 181.5,-357.22 181.5,-363.22 175.5,-369.22 169.5,-369.22"/>
<text text-anchor="middle" x="128" y="-351.82" font-family="Helvetica,sans-Serif" font-size="10.50" fill="#1c2b26">Excel import</text>
<text text-anchor="middle" x="128" y="-339.82" font-family="Helvetica,sans-Serif" font-size="10.50" fill="#1c2b26">source = &#39;data&#39;</text>
</g>
<!-- v_batch -->
<g id="node5" class="node">
<title>v_batch</title>
<path fill="#00695c" fill-opacity="0.094118" stroke="#00695c" stroke-width="1.4" stroke-dasharray="5,2" d="M413,-379.22C413,-379.22 308,-379.22 308,-379.22 302,-379.22 296,-373.22 296,-367.22 296,-367.22 296,-325.22 296,-325.22 296,-319.22 302,-313.22 308,-313.22 308,-313.22 413,-313.22 413,-313.22 419,-313.22 425,-319.22 425,-325.22 425,-325.22 425,-367.22 425,-367.22 425,-373.22 419,-379.22 413,-379.22"/>
<text text-anchor="middle" x="360.5" y="-361.82" font-family="Helvetica,sans-Serif" font-size="10.50" fill="#1c2b26">import_batch</text>
<text text-anchor="middle" x="360.5" y="-349.82" font-family="Helvetica,sans-Serif" font-size="10.50" fill="#1c2b26">validates _META,</text>
<text text-anchor="middle" x="360.5" y="-337.82" font-family="Helvetica,sans-Serif" font-size="10.50" fill="#1c2b26">structure, DS codes</text>
<text text-anchor="middle" x="360.5" y="-325.82" font-family="Helvetica,sans-Serif" font-size="10.50" fill="#1c2b26">errors → JSONB</text>
</g>
<!-- s_xl&#45;&gt;v_batch -->
<g id="edge1" class="edge">
<title>s_xl&#45;&gt;v_batch</title>
<path fill="none" stroke="#555555" d="M181.59,-347.76C213.09,-347.49 253.56,-347.14 287.95,-346.84"/>
<polygon fill="#555555" stroke="#555555" points="288.16,-349.46 295.64,-346.77 288.11,-344.22 288.16,-349.46"/>
</g>
<!-- s_ex -->
<g id="node2" class="node">
<title>s_ex</title>
<path fill="#c77400" fill-opacity="0.094118" stroke="#c77400" stroke-width="1.4" stroke-dasharray="5,2" d="M174.5,-304.22C174.5,-304.22 81.5,-304.22 81.5,-304.22 75.5,-304.22 69.5,-298.22 69.5,-292.22 69.5,-292.22 69.5,-274.22 69.5,-274.22 69.5,-268.22 75.5,-262.22 81.5,-262.22 81.5,-262.22 174.5,-262.22 174.5,-262.22 180.5,-262.22 186.5,-268.22 186.5,-274.22 186.5,-274.22 186.5,-292.22 186.5,-292.22 186.5,-298.22 180.5,-304.22 174.5,-304.22"/>
<text text-anchor="middle" x="128" y="-286.82" font-family="Helvetica,sans-Serif" font-size="10.50" fill="#1c2b26">Expert entry</text>
<text text-anchor="middle" x="128" y="-274.82" font-family="Helvetica,sans-Serif" font-size="10.50" fill="#1c2b26">source = &#39;expert&#39;</text>
</g>
<!-- v_raw -->
<g id="node6" class="node">
<title>v_raw</title>
<path fill="#2e7d32" fill-opacity="0.094118" stroke="#2e7d32" stroke-width="2" d="M684,-277.7C684,-281.44 641.87,-284.47 590,-284.47 538.13,-284.47 496,-281.44 496,-277.7 496,-277.7 496,-216.74 496,-216.74 496,-213.01 538.13,-209.97 590,-209.97 641.87,-209.97 684,-213.01 684,-216.74 684,-216.74 684,-277.7 684,-277.7"/>
<path fill="none" stroke="#2e7d32" stroke-width="2" d="M684,-277.7C684,-273.96 641.87,-270.93 590,-270.93 538.13,-270.93 496,-273.96 496,-277.7"/>
<text text-anchor="middle" x="590" y="-256.82" font-family="Helvetica,sans-Serif" font-size="10.50" fill="#1c2b26">indicator_value.raw_value</text>
<text text-anchor="middle" x="590" y="-244.82" font-family="Helvetica,sans-Serif" font-size="10.50" fill="#1c2b26">native units, never normalised</text>
<text text-anchor="middle" x="590" y="-232.82" font-family="Helvetica,sans-Serif" font-size="10.50" fill="#1c2b26">year_start / year_end</text>
</g>
<!-- s_ex&#45;&gt;v_raw -->
<g id="edge2" class="edge">
<title>s_ex&#45;&gt;v_raw</title>
<path fill="none" stroke="#555555" d="M186.79,-278.7C262.25,-272.79 395.57,-262.36 487.92,-255.13"/>
<polygon fill="#555555" stroke="#555555" points="488.34,-257.73 495.61,-254.53 487.93,-252.5 488.34,-257.73"/>
</g>
<!-- s_co -->
<g id="node3" class="node">
<title>s_co</title>
<path fill="#c77400" fill-opacity="0.094118" stroke="#c77400" stroke-width="1.4" stroke-dasharray="5,2" d="M187.5,-239.22C187.5,-239.22 68.5,-239.22 68.5,-239.22 62.5,-239.22 56.5,-233.22 56.5,-227.22 56.5,-227.22 56.5,-209.22 56.5,-209.22 56.5,-203.22 62.5,-197.22 68.5,-197.22 68.5,-197.22 187.5,-197.22 187.5,-197.22 193.5,-197.22 199.5,-203.22 199.5,-209.22 199.5,-209.22 199.5,-227.22 199.5,-227.22 199.5,-233.22 193.5,-239.22 187.5,-239.22"/>
<text text-anchor="middle" x="128" y="-221.82" font-family="Helvetica,sans-Serif" font-size="10.50" fill="#1c2b26">Community rating</text>
<text text-anchor="middle" x="128" y="-209.82" font-family="Helvetica,sans-Serif" font-size="10.50" fill="#1c2b26">source = &#39;community&#39;</text>
</g>
<!-- s_co&#45;&gt;v_raw -->
<g id="edge3" class="edge">
<title>s_co&#45;&gt;v_raw</title>
<path fill="none" stroke="#555555" d="M199.62,-222.67C276.7,-227.53 400.78,-235.35 488.12,-240.86"/>
<polygon fill="#555555" stroke="#555555" points="488.01,-243.48 495.66,-241.34 488.34,-238.24 488.01,-243.48"/>
</g>
<!-- s_tb -->
<g id="node4" class="node">
<title>s_tb</title>
<path fill="#00838f" fill-opacity="0.094118" stroke="#00838f" stroke-width="1.4" stroke-dasharray="5,2" d="M194,-174.22C194,-174.22 62,-174.22 62,-174.22 56,-174.22 50,-168.22 50,-162.22 50,-162.22 50,-144.22 50,-144.22 50,-138.22 56,-132.22 62,-132.22 62,-132.22 194,-132.22 194,-132.22 200,-132.22 206,-138.22 206,-144.22 206,-144.22 206,-162.22 206,-162.22 206,-168.22 200,-174.22 194,-174.22"/>
<text text-anchor="middle" x="128" y="-156.82" font-family="Helvetica,sans-Serif" font-size="10.50" fill="#1c2b26">Spatial toolbox</text>
<text text-anchor="middle" x="128" y="-144.82" font-family="Helvetica,sans-Serif" font-size="10.50" fill="#1c2b26">derivation = &#39;computed&#39;</text>
</g>
<!-- s_tb&#45;&gt;v_raw -->
<g id="edge4" class="edge">
<title>s_tb&#45;&gt;v_raw</title>
<path fill="none" stroke="#555555" stroke-dasharray="5,2" d="M206.05,-164.19C266.01,-173.22 351.17,-187.12 425,-203.22 445.61,-207.72 467.51,-213.14 488.38,-218.61"/>
<polygon fill="#555555" stroke="#555555" points="487.79,-221.17 495.71,-220.55 489.13,-216.1 487.79,-221.17"/>
<text text-anchor="middle" x="360.5" y="-216.02" font-family="Helvetica,sans-Serif" font-size="9.00">computation_job_id</text>
<text text-anchor="middle" x="360.5" y="-206.02" font-family="Helvetica,sans-Serif" font-size="9.00">required (CHECK)</text>
</g>
<!-- v_batch&#45;&gt;v_raw -->
<g id="edge5" class="edge">
<title>v_batch&#45;&gt;v_raw</title>
<path fill="none" stroke="#555555" d="M425.17,-318.51C448.72,-308.26 475.85,-296.46 501.17,-285.44"/>
<polygon fill="#555555" stroke="#555555" points="502.43,-287.76 508.26,-282.36 500.33,-282.94 502.43,-287.76"/>
</g>
<!-- n_norm -->
<g id="node9" class="node">
<title>n_norm</title>
<path fill="#00695c" fill-opacity="0.094118" stroke="#00695c" stroke-width="1.4" stroke-dasharray="5,2" d="M910,-186.22C910,-186.22 768,-186.22 768,-186.22 762,-186.22 756,-180.22 756,-174.22 756,-174.22 756,-120.22 756,-120.22 756,-114.22 762,-108.22 768,-108.22 768,-108.22 910,-108.22 910,-108.22 916,-108.22 922,-114.22 922,-120.22 922,-120.22 922,-174.22 922,-174.22 922,-180.22 916,-186.22 910,-186.22"/>
<text text-anchor="middle" x="839" y="-168.82" font-family="Helvetica,sans-Serif" font-size="10.50" fill="#1c2b26">3 · Normalisation (B3)</text>
<text text-anchor="middle" x="839" y="-156.82" font-family="Helvetica,sans-Serif" font-size="10.50" fill="#1c2b26">server&#45;side, never in Excel</text>
<text text-anchor="middle" x="839" y="-144.82" font-family="Helvetica,sans-Serif" font-size="10.50" fill="#1c2b26">minmax | zscore</text>
<text text-anchor="middle" x="839" y="-132.82" font-family="Helvetica,sans-Serif" font-size="10.50" fill="#1c2b26">pooled | per_year | fixed</text>
<text text-anchor="middle" x="839" y="-120.82" font-family="Helvetica,sans-Serif" font-size="10.50" fill="#1c2b26">→ [0,1]</text>
</g>
<!-- v_raw&#45;&gt;n_norm -->
<g id="edge8" class="edge">
<title>v_raw&#45;&gt;n_norm</title>
<path fill="none" stroke="#555555" d="M684.13,-216.66C693.43,-213.27 702.68,-209.76 711.5,-206.22 724.21,-201.11 737.48,-195.38 750.43,-189.55"/>
<polygon fill="#555555" stroke="#555555" points="751.84,-191.8 757.59,-186.31 749.68,-187.01 751.84,-191.8"/>
</g>
<!-- r_agg -->
<g id="node7" class="node">
<title>r_agg</title>
<polygon fill="#616161" fill-opacity="0.094118" stroke="#616161" stroke-width="2" points="672.5,-174.22 501.5,-174.22 501.5,-120.22 678.5,-120.22 678.5,-168.22 672.5,-174.22"/>
<polyline fill="none" stroke="#616161" stroke-width="2" points="672.5,-174.22 672.5,-168.22 "/>
<polyline fill="none" stroke="#616161" stroke-width="2" points="678.5,-168.22 672.5,-168.22 "/>
<text text-anchor="middle" x="590" y="-156.82" font-family="Helvetica,sans-Serif" font-size="10.50" fill="#1c2b26">period_aggregation</text>
<text text-anchor="middle" x="590" y="-144.82" font-family="Helvetica,sans-Serif" font-size="10.50" fill="#1c2b26">160 average (a typical year)</text>
<text text-anchor="middle" x="590" y="-132.82" font-family="Helvetica,sans-Serif" font-size="10.50" fill="#1c2b26">11 fixed_window · 3 max</text>
</g>
<!-- r_agg&#45;&gt;n_norm -->
<g id="edge6" class="edge">
<title>r_agg&#45;&gt;n_norm</title>
<path fill="none" stroke="#555555" stroke-dasharray="5,2" d="M678.78,-147.22C701.33,-147.22 725.61,-147.22 748.26,-147.22"/>
<polygon fill="#555555" stroke="#555555" points="748.37,-149.85 755.87,-147.22 748.37,-144.6 748.37,-149.85"/>
</g>
<!-- r_yr -->
<g id="node8" class="node">
<title>r_yr</title>
<polygon fill="#616161" fill-opacity="0.094118" stroke="#616161" stroke-width="2" points="666.5,-97.22 507.5,-97.22 507.5,-43.22 672.5,-43.22 672.5,-91.22 666.5,-97.22"/>
<polyline fill="none" stroke="#616161" stroke-width="2" points="666.5,-97.22 666.5,-91.22 "/>
<polyline fill="none" stroke="#616161" stroke-width="2" points="672.5,-91.22 666.5,-91.22 "/>
<text text-anchor="middle" x="590" y="-79.82" font-family="Helvetica,sans-Serif" font-size="10.50" fill="#1c2b26">iv_for_year()</text>
<text text-anchor="middle" x="590" y="-67.82" font-family="Helvetica,sans-Serif" font-size="10.50" fill="#1c2b26">2025 is in BOTH periods →</text>
<text text-anchor="middle" x="590" y="-55.82" font-family="Helvetica,sans-Serif" font-size="10.50" fill="#1c2b26">latest period wins</text>
</g>
<!-- r_yr&#45;&gt;n_norm -->
<g id="edge7" class="edge">
<title>r_yr&#45;&gt;n_norm</title>
<path fill="none" stroke="#555555" stroke-dasharray="5,2" d="M672.56,-95.65C696.86,-103.22 723.62,-111.56 748.4,-119.29"/>
<polygon fill="#555555" stroke="#555555" points="747.74,-121.83 755.68,-121.56 749.3,-116.82 747.74,-121.83"/>
</g>
<!-- w_prof -->
<g id="node10" class="node">
<title>w_prof</title>
<path fill="#2e7d32" fill-opacity="0.094118" stroke="#2e7d32" stroke-width="2" d="M1150,-134.22C1150,-134.22 981,-134.22 981,-134.22 975,-134.22 969,-128.22 969,-122.22 969,-122.22 969,-68.22 969,-68.22 969,-62.22 975,-56.22 981,-56.22 981,-56.22 1150,-56.22 1150,-56.22 1156,-56.22 1162,-62.22 1162,-68.22 1162,-68.22 1162,-122.22 1162,-122.22 1162,-128.22 1156,-134.22 1150,-134.22"/>
<text text-anchor="middle" x="1065.5" y="-116.82" font-family="Helvetica,sans-Serif" font-size="10.50" fill="#1c2b26">4 · Weighting</text>
<text text-anchor="middle" x="1065.5" y="-104.82" font-family="Helvetica,sans-Serif" font-size="10.50" fill="#1c2b26">profile_indicator</text>
<text text-anchor="middle" x="1065.5" y="-92.82" font-family="Helvetica,sans-Serif" font-size="10.50" fill="#1c2b26">per province × sector × hazard</text>
<text text-anchor="middle" x="1065.5" y="-80.82" font-family="Helvetica,sans-Serif" font-size="10.50" fill="#1c2b26">Σ = 100 per domain</text>
<text text-anchor="middle" x="1065.5" y="-68.82" font-family="Helvetica,sans-Serif" font-size="10.50" fill="#1c2b26">+ raises / − lowers</text>
</g>
<!-- n_norm&#45;&gt;w_prof -->
<g id="edge9" class="edge">
<title>n_norm&#45;&gt;w_prof</title>
<path fill="none" stroke="#555555" d="M922,-128.23C934.67,-125.29 947.9,-122.23 960.96,-119.2"/>
<polygon fill="#555555" stroke="#555555" points="961.92,-121.68 968.63,-117.43 960.73,-116.56 961.92,-121.68"/>
</g>
<!-- x_haz -->
<g id="node12" class="node">
<title>x_haz</title>
<path fill="#00695c" fill-opacity="0.094118" stroke="#00695c" stroke-width="1.4" stroke-dasharray="5,2" d="M1382.5,-135.22C1382.5,-135.22 1270.5,-135.22 1270.5,-135.22 1264.5,-135.22 1258.5,-129.22 1258.5,-123.22 1258.5,-123.22 1258.5,-111.22 1258.5,-111.22 1258.5,-105.22 1264.5,-99.22 1270.5,-99.22 1270.5,-99.22 1382.5,-99.22 1382.5,-99.22 1388.5,-99.22 1394.5,-105.22 1394.5,-111.22 1394.5,-111.22 1394.5,-123.22 1394.5,-123.22 1394.5,-129.22 1388.5,-135.22 1382.5,-135.22"/>
<text text-anchor="middle" x="1326.5" y="-114.82" font-family="Helvetica,sans-Serif" font-size="10.50" fill="#1c2b26">hazard_index ∈ [0,1]</text>
</g>
<!-- w_prof&#45;&gt;x_haz -->
<g id="edge11" class="edge">
<title>w_prof&#45;&gt;x_haz</title>
<path fill="none" stroke="#555555" d="M1162.21,-103.35C1191.45,-105.83 1223.16,-108.53 1250.79,-110.87"/>
<polygon fill="#555555" stroke="#555555" points="1250.78,-113.51 1258.47,-111.53 1251.22,-108.28 1250.78,-113.51"/>
<text text-anchor="middle" x="1207.5" y="-122.02" font-family="Helvetica,sans-Serif" font-size="9.00">domain =</text>
<text text-anchor="middle" x="1207.5" y="-112.02" font-family="Helvetica,sans-Serif" font-size="9.00">hazard</text>
</g>
<!-- x_exp -->
<g id="node13" class="node">
<title>x_exp</title>
<path fill="#00695c" fill-opacity="0.094118" stroke="#00695c" stroke-width="1.4" stroke-dasharray="5,2" d="M1388,-76.22C1388,-76.22 1265,-76.22 1265,-76.22 1259,-76.22 1253,-70.22 1253,-64.22 1253,-64.22 1253,-52.22 1253,-52.22 1253,-46.22 1259,-40.22 1265,-40.22 1265,-40.22 1388,-40.22 1388,-40.22 1394,-40.22 1400,-46.22 1400,-52.22 1400,-52.22 1400,-64.22 1400,-64.22 1400,-70.22 1394,-76.22 1388,-76.22"/>
<text text-anchor="middle" x="1326.5" y="-55.82" font-family="Helvetica,sans-Serif" font-size="10.50" fill="#1c2b26">exposure_index ∈ [0,1]</text>
</g>
<!-- w_prof&#45;&gt;x_exp -->
<g id="edge12" class="edge">
<title>w_prof&#45;&gt;x_exp</title>
<path fill="none" stroke="#555555" d="M1162.21,-81.55C1189.49,-77.65 1218.92,-73.45 1245.18,-69.69"/>
<polygon fill="#555555" stroke="#555555" points="1245.81,-72.26 1252.86,-68.6 1245.06,-67.06 1245.81,-72.26"/>
<text text-anchor="middle" x="1207.5" y="-91.02" font-family="Helvetica,sans-Serif" font-size="9.00">domain =</text>
<text text-anchor="middle" x="1207.5" y="-81.02" font-family="Helvetica,sans-Serif" font-size="9.00">exposure</text>
</g>
<!-- w_gate -->
<g id="node11" class="node">
<title>w_gate</title>
<polygon fill="#c0392b" fill-opacity="0.094118" stroke="#c0392b" stroke-width="2" points="905,-85.22 767,-85.22 767,-19.22 911,-19.22 911,-79.22 905,-85.22"/>
<polyline fill="none" stroke="#c0392b" stroke-width="2" points="905,-85.22 905,-79.22 "/>
<polyline fill="none" stroke="#c0392b" stroke-width="2" points="911,-79.22 905,-79.22 "/>
<text text-anchor="middle" x="839" y="-67.82" font-family="Helvetica,sans-Serif" font-size="10.50" fill="#1c2b26">v_profile_readiness</text>
<text text-anchor="middle" x="839" y="-55.82" font-family="Helvetica,sans-Serif" font-size="10.50" fill="#1c2b26">any weight NULL →</text>
<text text-anchor="middle" x="839" y="-43.82" font-family="Helvetica,sans-Serif" font-size="10.50" fill="#1c2b26">REFUSE to compute</text>
<text text-anchor="middle" x="839" y="-31.82" font-family="Helvetica,sans-Serif" font-size="10.50" fill="#1c2b26">(1,783 of 3,664 today)</text>
</g>
<!-- w_gate&#45;&gt;w_prof -->
<g id="edge10" class="edge">
<title>w_gate&#45;&gt;w_prof</title>
<path fill="none" stroke="#c0392b" stroke-dasharray="5,2" d="M911.03,-65.83C926.96,-68.88 944.18,-72.17 961.12,-75.42"/>
<polygon fill="#c0392b" stroke="#c0392b" points="961.02,-78.07 968.88,-76.91 962.01,-72.92 961.02,-78.07"/>
</g>
<!-- x_vul -->
<g id="node14" class="node">
<title>x_vul</title>
<path fill="#00695c" fill-opacity="0.094118" stroke="#00695c" stroke-width="1.4" stroke-dasharray="5,2" d="M1635,-126.22C1635,-126.22 1459,-126.22 1459,-126.22 1453,-126.22 1447,-120.22 1447,-114.22 1447,-114.22 1447,-84.22 1447,-84.22 1447,-78.22 1453,-72.22 1459,-72.22 1459,-72.22 1635,-72.22 1635,-72.22 1641,-72.22 1647,-78.22 1647,-84.22 1647,-84.22 1647,-114.22 1647,-114.22 1647,-120.22 1641,-126.22 1635,-126.22"/>
<text text-anchor="middle" x="1547" y="-108.82" font-family="Helvetica,sans-Serif" font-size="10.50" fill="#1c2b26">vulnerability_index</text>
<text text-anchor="middle" x="1547" y="-96.82" font-family="Helvetica,sans-Serif" font-size="10.50" fill="#1c2b26">= f(Exposure, Hazard)</text>
<text text-anchor="middle" x="1547" y="-84.82" font-family="Helvetica,sans-Serif" font-size="10.50" fill="#1c2b26">per DS division · sector × hazard</text>
</g>
<!-- x_haz&#45;&gt;x_vul -->
<g id="edge13" class="edge">
<title>x_haz&#45;&gt;x_vul</title>
<path fill="none" stroke="#555555" d="M1394.54,-111.7C1408.77,-110.53 1424.13,-109.26 1439.42,-108"/>
<polygon fill="#555555" stroke="#555555" points="1439.66,-110.62 1446.92,-107.38 1439.23,-105.38 1439.66,-110.62"/>
</g>
<!-- x_exp&#45;&gt;x_vul -->
<g id="edge14" class="edge">
<title>x_exp&#45;&gt;x_vul</title>
<path fill="none" stroke="#555555" d="M1400.26,-71.87C1412.71,-74.21 1425.88,-76.68 1439,-79.14"/>
<polygon fill="#555555" stroke="#555555" points="1438.86,-81.79 1446.72,-80.59 1439.83,-76.63 1438.86,-81.79"/>
</g>
<!-- d_vr -->
<g id="node15" class="node">
<title>d_vr</title>
<path fill="#2e7d32" fill-opacity="0.094118" stroke="#2e7d32" stroke-width="2" d="M1887,-136.24C1887,-140.78 1852.94,-144.47 1811,-144.47 1769.06,-144.47 1735,-140.78 1735,-136.24 1735,-136.24 1735,-62.2 1735,-62.2 1735,-57.66 1769.06,-53.97 1811,-53.97 1852.94,-53.97 1887,-57.66 1887,-62.2 1887,-62.2 1887,-136.24 1887,-136.24"/>
<path fill="none" stroke="#2e7d32" stroke-width="2" d="M1887,-136.24C1887,-131.7 1852.94,-128.02 1811,-128.02 1769.06,-128.02 1735,-131.7 1735,-136.24"/>
<text text-anchor="middle" x="1811" y="-114.82" font-family="Helvetica,sans-Serif" font-size="10.50" fill="#1c2b26">vulnerability_result</text>
<text text-anchor="middle" x="1811" y="-102.82" font-family="Helvetica,sans-Serif" font-size="10.50" fill="#1c2b26">profile_id pins the exact</text>
<text text-anchor="middle" x="1811" y="-90.82" font-family="Helvetica,sans-Serif" font-size="10.50" fill="#1c2b26">weights used → every</text>
<text text-anchor="middle" x="1811" y="-78.82" font-family="Helvetica,sans-Serif" font-size="10.50" fill="#1c2b26">score stays explainable</text>
</g>
<!-- x_vul&#45;&gt;d_vr -->
<g id="edge15" class="edge">
<title>x_vul&#45;&gt;d_vr</title>
<path fill="none" stroke="#555555" d="M1647.05,-99.22C1673.45,-99.22 1701.69,-99.22 1727.12,-99.22"/>
<polygon fill="#555555" stroke="#555555" points="1727.41,-101.85 1734.91,-99.22 1727.41,-96.6 1727.41,-101.85"/>
</g>
<!-- p_ssp -->
<g id="node16" class="node">
<title>p_ssp</title>
<path fill="#ad1457" fill-opacity="0.094118" stroke="#ad1457" stroke-width="1.4" stroke-dasharray="5,2" d="M2070.5,-167.22C2070.5,-167.22 1959.5,-167.22 1959.5,-167.22 1953.5,-167.22 1947.5,-161.22 1947.5,-155.22 1947.5,-155.22 1947.5,-113.22 1947.5,-113.22 1947.5,-107.22 1953.5,-101.22 1959.5,-101.22 1959.5,-101.22 2070.5,-101.22 2070.5,-101.22 2076.5,-101.22 2082.5,-107.22 2082.5,-113.22 2082.5,-113.22 2082.5,-155.22 2082.5,-155.22 2082.5,-161.22 2076.5,-167.22 2070.5,-167.22"/>
<text text-anchor="middle" x="2015" y="-149.82" font-family="Helvetica,sans-Serif" font-size="10.50" fill="#1c2b26">5 · SSP scenario (B5)</text>
<text text-anchor="middle" x="2015" y="-137.82" font-family="Helvetica,sans-Serif" font-size="10.50" fill="#1c2b26">scenario_parameter</text>
<text text-anchor="middle" x="2015" y="-125.82" font-family="Helvetica,sans-Serif" font-size="10.50" fill="#1c2b26">shifts inputs</text>
<text text-anchor="middle" x="2015" y="-113.82" font-family="Helvetica,sans-Serif" font-size="10.50" fill="#1c2b26">SSP1..SSP5</text>
</g>
<!-- d_vr&#45;&gt;p_ssp -->
<g id="edge17" class="edge">
<title>d_vr&#45;&gt;p_ssp</title>
<path fill="none" stroke="#555555" d="M1887.22,-112.25C1904.34,-115.22 1922.52,-118.37 1939.6,-121.33"/>
<polygon fill="#555555" stroke="#555555" points="1939.53,-123.98 1947.37,-122.68 1940.43,-118.81 1939.53,-123.98"/>
</g>
<!-- o_map -->
<g id="node20" class="node">
<title>o_map</title>
<path fill="#1565c0" fill-opacity="0.094118" stroke="#1565c0" stroke-width="1.4" stroke-dasharray="5,2" d="M2084,-78.22C2084,-78.22 1946,-78.22 1946,-78.22 1940,-78.22 1934,-72.22 1934,-66.22 1934,-66.22 1934,-36.22 1934,-36.22 1934,-30.22 1940,-24.22 1946,-24.22 1946,-24.22 2084,-24.22 2084,-24.22 2090,-24.22 2096,-30.22 2096,-36.22 2096,-36.22 2096,-66.22 2096,-66.22 2096,-72.22 2090,-78.22 2084,-78.22"/>
<text text-anchor="middle" x="2015" y="-60.82" font-family="Helvetica,sans-Serif" font-size="10.50" fill="#1c2b26">vector tiles (MVT)</text>
<text text-anchor="middle" x="2015" y="-48.82" font-family="Helvetica,sans-Serif" font-size="10.50" fill="#1c2b26">→ OpenLayers choropleth</text>
<text text-anchor="middle" x="2015" y="-36.82" font-family="Helvetica,sans-Serif" font-size="10.50" fill="#1c2b26">3 tracks side by side</text>
</g>
<!-- d_vr&#45;&gt;o_map -->
<g id="edge16" class="edge">
<title>d_vr&#45;&gt;o_map</title>
<path fill="none" stroke="#555555" d="M1887.22,-81.35C1899.97,-78.32 1913.31,-75.15 1926.35,-72.05"/>
<polygon fill="#555555" stroke="#555555" points="1927.29,-74.52 1933.98,-70.23 1926.08,-69.41 1927.29,-74.52"/>
</g>
<!-- p_imp -->
<g id="node17" class="node">
<title>p_imp</title>
<path fill="#ad1457" fill-opacity="0.094118" stroke="#ad1457" stroke-width="1.4" stroke-dasharray="5,2" d="M2286.5,-155.22C2286.5,-155.22 2168.5,-155.22 2168.5,-155.22 2162.5,-155.22 2156.5,-149.22 2156.5,-143.22 2156.5,-143.22 2156.5,-125.22 2156.5,-125.22 2156.5,-119.22 2162.5,-113.22 2168.5,-113.22 2168.5,-113.22 2286.5,-113.22 2286.5,-113.22 2292.5,-113.22 2298.5,-119.22 2298.5,-125.22 2298.5,-125.22 2298.5,-143.22 2298.5,-143.22 2298.5,-149.22 2292.5,-155.22 2286.5,-155.22"/>
<text text-anchor="middle" x="2227.5" y="-137.82" font-family="Helvetica,sans-Serif" font-size="10.50" fill="#1c2b26">impact_projection</text>
<text text-anchor="middle" x="2227.5" y="-125.82" font-family="Helvetica,sans-Serif" font-size="10.50" fill="#1c2b26">per sector / subsector</text>
</g>
<!-- p_ssp&#45;&gt;p_imp -->
<g id="edge18" class="edge">
<title>p_ssp&#45;&gt;p_imp</title>
<path fill="none" stroke="#555555" d="M2082.6,-134.22C2103.61,-134.22 2127.01,-134.22 2148.73,-134.22"/>
<polygon fill="#555555" stroke="#555555" points="2148.83,-136.85 2156.33,-134.22 2148.83,-131.6 2148.83,-136.85"/>
</g>
<!-- m_cmp -->
<g id="node19" class="node">
<title>m_cmp</title>
<path fill="#ad1457" fill-opacity="0.094118" stroke="#ad1457" stroke-width="1.4" stroke-dasharray="5,2" d="M2508,-57.22C2508,-57.22 2371,-57.22 2371,-57.22 2365,-57.22 2359,-51.22 2359,-45.22 2359,-45.22 2359,-27.22 2359,-27.22 2359,-21.22 2365,-15.22 2371,-15.22 2371,-15.22 2508,-15.22 2508,-15.22 2514,-15.22 2520,-21.22 2520,-27.22 2520,-27.22 2520,-45.22 2520,-45.22 2520,-51.22 2514,-57.22 2508,-57.22"/>
<text text-anchor="middle" x="2439.5" y="-39.82" font-family="Helvetica,sans-Serif" font-size="10.50" fill="#1c2b26">M1 &#160;predicted vs actual</text>
<text text-anchor="middle" x="2439.5" y="-27.82" font-family="Helvetica,sans-Serif" font-size="10.50" fill="#1c2b26">→ alerts, model feedback</text>
</g>
<!-- p_imp&#45;&gt;m_cmp -->
<g id="edge19" class="edge">
<title>p_imp&#45;&gt;m_cmp</title>
<path fill="none" stroke="#555555" d="M2273.55,-113.2C2306.52,-97.81 2351.34,-76.89 2385.94,-60.75"/>
<polygon fill="#555555" stroke="#555555" points="2387.48,-62.93 2393.16,-57.38 2385.26,-58.17 2387.48,-62.93"/>
</g>
<!-- m_obs -->
<g id="node18" class="node">
<title>m_obs</title>
<path fill="#ad1457" fill-opacity="0.094118" stroke="#ad1457" stroke-width="1.4" stroke-dasharray="5,2" d="M2300,-43.22C2300,-43.22 2155,-43.22 2155,-43.22 2149,-43.22 2143,-37.22 2143,-31.22 2143,-31.22 2143,-13.22 2143,-13.22 2143,-7.22 2149,-1.22 2155,-1.22 2155,-1.22 2300,-1.22 2300,-1.22 2306,-1.22 2312,-7.22 2312,-13.22 2312,-13.22 2312,-31.22 2312,-31.22 2312,-37.22 2306,-43.22 2300,-43.22"/>
<text text-anchor="middle" x="2227.5" y="-25.82" font-family="Helvetica,sans-Serif" font-size="10.50" fill="#1c2b26">6 · monitoring_observation</text>
<text text-anchor="middle" x="2227.5" y="-13.82" font-family="Helvetica,sans-Serif" font-size="10.50" fill="#1c2b26">actual observed outcome</text>
</g>
<!-- m_obs&#45;&gt;m_cmp -->
<g id="edge20" class="edge">
<title>m_obs&#45;&gt;m_cmp</title>
<path fill="none" stroke="#555555" d="M2312.1,-27.79C2325.01,-28.65 2338.37,-29.55 2351.35,-30.41"/>
<polygon fill="#555555" stroke="#555555" points="2351.29,-33.04 2358.95,-30.92 2351.64,-27.8 2351.29,-33.04"/>
</g>
<!-- m_cmp&#45;&gt;n_norm -->
<g id="edge21" class="edge">
<title>m_cmp&#45;&gt;n_norm</title>
<path fill="none" stroke="#555555" stroke-dasharray="5,2" d="M2364.59,-57.27C2303.21,-70.92 2214.67,-81.58 2143,-54.22 2116.83,-44.23 2122.17,-22.21 2096,-12.22 2028.73,13.46 2006,-11.37 1934,-12.22 1631.27,-15.78 1555.51,-16.15 1253,-28.22 1126.68,-33.26 1083.05,10.32 969,-44.22 940.9,-57.66 945.9,-76.24 922,-96.22 919.1,-98.65 916.07,-101.04 912.96,-103.39"/>
<polygon fill="#555555" stroke="#555555" points="910.97,-101.59 906.48,-108.15 914.08,-105.82 910.97,-101.59"/>
<text text-anchor="middle" x="1691" y="-19.02" font-family="Helvetica,sans-Serif" font-size="9.00">feedback</text>
</g>
</g>
</svg>
